<?xml version="1.0" encoding="utf-8"?>
<!-- Generator: Adobe Illustrator 19.0.0, SVG Export Plug-In . SVG Version: 6.00 Build 0)  -->
<svg version="1.1" id="Layer_1" xmlns="http://www.w3.org/2000/svg" xmlns:xlink="http://www.w3.org/1999/xlink" x="0px" y="0px"
	 viewBox="0 0 105 30" enable-background="new 0 0 105 30" xml:space="preserve">
<g id="XMLID_56_">
	<g id="XMLID_65_">
		<g id="XMLID_71_">
			<g id="XMLID_74_">
				<path id="XMLID_79_" d="M77.2,13c-0.5-0.9-1.7-1.9-3.7-1.9c-3.1,0-5.6,2.4-5.6,5.8c0,3.1,2.1,5.8,5.6,5.8c1.5,0,3-0.6,3.7-1.9
					v1.6h2.6V11.4h-2.6V13z M77.2,16.9c0,0.5-0.2,1.1-0.4,1.5c-0.5,1-1.5,1.8-2.9,1.8c-2.4,0-3.3-2-3.3-3.3v0c0-1.7,1.2-3.4,3.3-3.4
					c1.6,0,2.6,0.9,3,1.9C77.1,15.9,77.2,16.4,77.2,16.9z"/>
				<path id="XMLID_34_" d="M86.5,13.5c1.4,0,2.5,0.8,2.9,2h2.7c-0.6-2.7-3-4.4-5.7-4.4c-3.3,0-5.8,2.6-5.8,5.8
					c0,3.1,2.4,5.8,5.9,5.8c2.8,0,5-1.9,5.6-4.3h-2.7c-0.4,0.9-1.3,1.9-2.9,1.9c-1.9,0-3.2-1.4-3.2-3.4c0-1,0.3-1.8,0.9-2.4
					C84.8,13.8,85.6,13.4,86.5,13.5z"/>
				<path id="XMLID_33_" d="M54.5,11.4l-2.9,7.5l-2.7-7.5h-2.9l3.6,9.1l0.7,1.9c-0.8,2.2-1.4,2.1-2.8,1.9v2.2
					c0.5,0.1,1.1,0.2,1.9,0.2c1.9,0,2.7-1.7,3.3-3.2c0.5-1.3,4.6-12,4.6-12H54.5z"/>
				<path id="XMLID_32_" d="M42.1,13.6c-2.9-0.8-3.3-1.5-3.3-2.3c0-0.8,0.8-1.7,2.5-1.7c1.8,0,4.1,1,4.1,1V8
					c-0.8-0.3-2.3-0.7-4.3-0.7c-3.3,0-5.1,1.6-5.1,4.1c0,2.7,1.5,3.8,5,4.7c2.3,0.6,2.5,1.5,2.5,2.1c0,0.6-0.4,1.9-2.5,1.9
					c-2.2,0-4.6-1-4.6-1v2.6c0.8,0.3,2.4,0.8,4.8,0.8c3.5,0,5.2-1.8,5.2-4.4C46.4,15.5,45,14.5,42.1,13.6z"/>
				<path id="XMLID_31_" d="M62,10.9c-2.8,0-5.2,2.2-5.2,5v6.4h2.6v-6.5c0-1.3,1.3-2.4,2.6-2.4c1.3,0,2.6,1.1,2.6,2.4v6.5h2.6v-6.4
					C67.2,13.1,64.8,10.9,62,10.9z"/>
			</g>
			<path id="XMLID_72_" d="M93,6.8h2.6v9.3l3.6-4.7h3.3l-4.2,5.2l4.2,5.8h-3.1l-2.7-4l-1.1,1.4v2.6H93V6.8z"/>
		</g>
		<g id="XMLID_66_">
			<polygon id="XMLID_29_" fill="#006BFF" points="15.9,5.1 13,10.2 18.9,10.2 			"/>
			<path id="XMLID_28_" fill="#006BFF" d="M7.7,7.9L0,3.4l1.3,4.1l5.1,3l0,0c1.8,0.9,3.2,2.5,4.2,4.9l-8.4-5l1.3,4.1l11.4,6.7
				C14.4,16.8,13,10.5,7.7,7.9z"/>
			<polygon id="XMLID_27_" fill="#006BFF" points="4.3,17.1 5.6,21.1 13.1,25.6 11.2,26.7 11.2,30 15.9,27.2 20.6,30 20.6,26.7 
				18.7,25.6 26.3,21.1 27.5,17.1 15.9,23.9 			"/>
			<path id="XMLID_26_" fill="#006BFF" d="M25.4,10.4L25.4,10.4l5.1-3l1.3-4.1l-7.7,4.5c-5.2,2.6-6.7,8.9-7.1,13.2l11.4-6.7l1.3-4.1
				l-8.4,5C22.2,13,23.6,11.3,25.4,10.4z"/>
		</g>
	</g>
	<g id="XMLID_57_">
		<path id="XMLID_62_" d="M103.7,21.9h-0.3v-1.3h0.5c0.2,0,0.3,0,0.4,0.1c0.1,0.1,0.1,0.2,0.1,0.3v0c0,0.1,0,0.2-0.1,0.3
			c0,0.1-0.1,0.1-0.2,0.1l0.3,0.4h-0.3l-0.3-0.4h-0.2V21.9z M103.9,21.3c0.1,0,0.1,0,0.2,0c0,0,0.1-0.1,0.1-0.2v0
			c0-0.1,0-0.1-0.1-0.1c0,0-0.1,0-0.2,0h-0.2v0.4H103.9z"/>
		<g id="XMLID_58_">
			<path id="XMLID_59_" d="M103.9,22.4c-0.6,0-1.1-0.5-1.1-1.1c0-0.6,0.5-1.1,1.1-1.1c0.6,0,1.1,0.5,1.1,1.1
				C105,21.9,104.5,22.4,103.9,22.4z M103.9,20.3c-0.5,0-0.9,0.4-0.9,0.9c0,0.5,0.4,0.9,0.9,0.9c0.5,0,0.9-0.4,0.9-0.9
				C104.8,20.7,104.4,20.3,103.9,20.3z"/>
		</g>
	</g>
</g>
</svg>
